<mxfile host="65bd71144e">
    <diagram id="r6POxYIGoxg01aPneKH2" name="Page-1">
        <mxGraphModel dx="679" dy="814" grid="1" gridSize="10" guides="1" tooltips="1" connect="1" arrows="1" fold="1" page="1" pageScale="1" pageWidth="1600" pageHeight="900" math="0" shadow="0">
            <root>
                <mxCell id="0"/>
                <mxCell id="1" parent="0"/>
                <mxCell id="2" value="" style="shape=image;verticalLabelPosition=bottom;labelBackgroundColor=default;verticalAlign=top;aspect=fixed;imageAspect=0;image=http://nixos.local:8000/static/logo_netbox_dark_teal.svg;" vertex="1" parent="1">
                    <mxGeometry x="228.57000000000002" y="400" width="142.86" height="40" as="geometry"/>
                </mxCell>
                <mxCell id="13" value="" style="endArrow=classic;html=1;" edge="1" parent="1" source="15" target="8">
                    <mxGeometry width="50" height="50" relative="1" as="geometry">
                        <mxPoint x="490" y="530" as="sourcePoint"/>
                        <mxPoint x="540" y="480" as="targetPoint"/>
                    </mxGeometry>
                </mxCell>
                <mxCell id="14" value="" style="endArrow=classic;html=1;" edge="1" parent="1" source="15" target="7">
                    <mxGeometry width="50" height="50" relative="1" as="geometry">
                        <mxPoint x="510" y="410" as="sourcePoint"/>
                        <mxPoint x="560" y="360" as="targetPoint"/>
                    </mxGeometry>
                </mxCell>
                <mxCell id="15" value="machinecfg" style="sketch=0;html=1;aspect=fixed;strokeColor=#b85450;shadow=0;align=center;verticalAlign=top;fillColor=#f8cecc;shape=mxgraph.gcp2.process;labelPosition=center;verticalLabelPosition=bottom;" vertex="1" parent="1">
                    <mxGeometry x="538" y="370" width="84" height="100" as="geometry"/>
                </mxCell>
                <mxCell id="17" value="" style="endArrow=classic;html=1;" edge="1" parent="1" source="15" target="16">
                    <mxGeometry width="50" height="50" relative="1" as="geometry">
                        <mxPoint x="534" y="423.375" as="sourcePoint"/>
                        <mxPoint x="700" y="357.66666666666674" as="targetPoint"/>
                    </mxGeometry>
                </mxCell>
                <mxCell id="21" value="" style="endArrow=classic;html=1;" edge="1" parent="1" source="15" target="20">
                    <mxGeometry width="50" height="50" relative="1" as="geometry">
                        <mxPoint x="500" y="310" as="sourcePoint"/>
                        <mxPoint x="550" y="260" as="targetPoint"/>
                    </mxGeometry>
                </mxCell>
                <mxCell id="24" value="" style="endArrow=classic;html=1;entryX=0;entryY=0.5;entryDx=0;entryDy=0;entryPerimeter=0;" edge="1" parent="1" source="2" target="15">
                    <mxGeometry width="50" height="50" relative="1" as="geometry">
                        <mxPoint x="327.57000000000244" y="370.0000000000002" as="sourcePoint"/>
                        <mxPoint x="140" y="140" as="targetPoint"/>
                    </mxGeometry>
                </mxCell>
                <mxCell id="25" value="DCIM Database" style="swimlane;whiteSpace=wrap;html=1;fillColor=#d5e8d4;strokeColor=#82b366;" vertex="1" parent="1">
                    <mxGeometry x="200" y="120" width="200" height="600" as="geometry"/>
                </mxCell>
                <mxCell id="26" value="Generated Configuration Files" style="swimlane;whiteSpace=wrap;html=1;fillColor=#dae8fc;strokeColor=#6c8ebf;" vertex="1" parent="1">
                    <mxGeometry x="760" y="120" width="200" height="600" as="geometry"/>
                </mxCell>
                <mxCell id="7" value="Butane Files" style="aspect=fixed;html=1;points=[];align=center;image;fontSize=12;image=img/lib/azure2/general/Files.svg;fillColor=#dae8fc;strokeColor=#6c8ebf;labelBackgroundColor=none;" vertex="1" parent="26">
                    <mxGeometry x="68" y="350" width="64" height="70" as="geometry"/>
                </mxCell>
                <mxCell id="16" value="Talos Linux&lt;br&gt;Machine Configuration Patches" style="aspect=fixed;html=1;points=[];align=center;image;fontSize=12;image=img/lib/azure2/general/Files.svg;fillColor=#dae8fc;strokeColor=#6c8ebf;labelBackgroundColor=none;" vertex="1" parent="26">
                    <mxGeometry x="68" y="480" width="64" height="70" as="geometry"/>
                </mxCell>
                <mxCell id="8" value="JSON&lt;br&gt;Configurations" style="aspect=fixed;html=1;points=[];align=center;image;fontSize=12;image=img/lib/azure2/general/Files.svg;fillColor=#dae8fc;strokeColor=#6c8ebf;labelBackgroundColor=none;" vertex="1" parent="26">
                    <mxGeometry x="68" y="50" width="64" height="70" as="geometry"/>
                </mxCell>
                <mxCell id="20" value="YAML Manifests" style="aspect=fixed;html=1;points=[];align=center;image;fontSize=12;image=img/lib/azure2/general/Files.svg;fillColor=#dae8fc;strokeColor=#6c8ebf;labelBackgroundColor=none;" vertex="1" parent="26">
                    <mxGeometry x="68" y="200" width="64" height="70" as="geometry"/>
                </mxCell>
                <mxCell id="27" value="Target Systems" style="swimlane;whiteSpace=wrap;html=1;fillColor=#e1d5e7;strokeColor=#9673a6;" vertex="1" parent="1">
                    <mxGeometry x="1040" y="120" width="200" height="600" as="geometry"/>
                </mxCell>
                <mxCell id="10" value="SLE Micro&lt;br&gt;Flatcar Linux&lt;br&gt;Fedora / RH CoreOS" style="sketch=0;aspect=fixed;html=1;points=[];align=center;image;fontSize=12;image=img/lib/mscae/VM_Linux.svg;labelBackgroundColor=none;" vertex="1" parent="27">
                    <mxGeometry x="75" y="362" width="50" height="46" as="geometry"/>
                </mxCell>
                <mxCell id="18" value="Talos Linux" style="sketch=0;aspect=fixed;html=1;points=[];align=center;image;fontSize=12;image=img/lib/mscae/VM_Linux.svg;labelBackgroundColor=none;" vertex="1" parent="27">
                    <mxGeometry x="75" y="492" width="50" height="46" as="geometry"/>
                </mxCell>
                <mxCell id="9" value="Kubernetes" style="sketch=0;html=1;dashed=0;whitespace=wrap;fillColor=#2875E2;strokeColor=#ffffff;points=[[0.005,0.63,0],[0.1,0.2,0],[0.9,0.2,0],[0.5,0,0],[0.995,0.63,0],[0.72,0.99,0],[0.5,1,0],[0.28,0.99,0]];verticalLabelPosition=bottom;align=center;verticalAlign=top;shape=mxgraph.kubernetes.icon;prIcon=api;labelBackgroundColor=none;" vertex="1" parent="27">
                    <mxGeometry x="75" y="211" width="50" height="48" as="geometry"/>
                </mxCell>
                <mxCell id="22" value="Kea DHCP +&amp;nbsp;Matchbox" style="verticalLabelPosition=bottom;sketch=0;aspect=fixed;html=1;verticalAlign=top;strokeColor=none;align=center;outlineConnect=0;shape=mxgraph.citrix.dhcp_server;labelBackgroundColor=none;" vertex="1" parent="27">
                    <mxGeometry x="62" y="40" width="76" height="90" as="geometry"/>
                </mxCell>
                <mxCell id="28" value="Templates Generator" style="swimlane;whiteSpace=wrap;html=1;fillColor=#f8cecc;strokeColor=#b85450;" vertex="1" parent="1">
                    <mxGeometry x="480" y="120" width="200" height="600" as="geometry"/>
                </mxCell>
                <mxCell id="11" value="" style="endArrow=classic;html=1;" edge="1" parent="1" source="7" target="10">
                    <mxGeometry width="50" height="50" relative="1" as="geometry">
                        <mxPoint x="570" y="290" as="sourcePoint"/>
                        <mxPoint x="620" y="240" as="targetPoint"/>
                    </mxGeometry>
                </mxCell>
                <mxCell id="19" value="" style="endArrow=classic;html=1;" edge="1" parent="1" source="16" target="18">
                    <mxGeometry width="50" height="50" relative="1" as="geometry">
                        <mxPoint x="840" y="180" as="sourcePoint"/>
                        <mxPoint x="890" y="130" as="targetPoint"/>
                    </mxGeometry>
                </mxCell>
                <mxCell id="12" value="" style="endArrow=classic;html=1;entryX=0.005;entryY=0.63;entryDx=0;entryDy=0;entryPerimeter=0;" edge="1" parent="1" source="20" target="9">
                    <mxGeometry width="50" height="50" relative="1" as="geometry">
                        <mxPoint x="830" y="621" as="sourcePoint"/>
                        <mxPoint x="990" y="341" as="targetPoint"/>
                    </mxGeometry>
                </mxCell>
                <mxCell id="23" value="" style="endArrow=classic;html=1;" edge="1" parent="1" source="8" target="22">
                    <mxGeometry width="50" height="50" relative="1" as="geometry">
                        <mxPoint x="740" y="150" as="sourcePoint"/>
                        <mxPoint x="790" y="100" as="targetPoint"/>
                    </mxGeometry>
                </mxCell>
            </root>
        </mxGraphModel>
    </diagram>
</mxfile>
